<svg xmlns="http://www.w3.org/2000/svg" xmlns:xlink="http://www.w3.org/1999/xlink"><symbol id="icon-mail" viewBox="0 0 26 21"><g fill="none"><path d="M24.227.118H1.773C.768.118 0 .882 0 1.882v16.471c0 1 .768 1.765 1.773 1.765h22.454c1.005 0 1.773-.765 1.773-1.765V1.883c0-1-.768-1.765-1.773-1.765Zm0 17L19.56 12.47a.86.86 0 0 0-1.24 0 .85.85 0 0 0 0 1.235l4.667 4.647H3.014l4.668-4.647a.85.85 0 0 0 0-1.235.86.86 0 0 0-1.241 0l-4.668 4.647V5.824l10.636 8a.956.956 0 0 0 .532.176.956.956 0 0 0 .532-.176l10.754-8v11.294Zm0-15.236v1.706l-11.286 8.353L1.773 3.588V1.882h22.454Z" fill="#0AD9C6"/></g></symbol><symbol id="icon-phone" viewBox="0 0 17 24"><g fill="none"><path d="M1.456 6.742c-.084-1.198.181-2.378.885-3.327.61-.861 1.404-1.331 2.361-1.606.807-.239 1.335.054 1.568.95.332 1.34.806 2.681.978 4.092.055.622-.347 1.5-.782 1.952-1.09 1.074-.864 1.855-.036 3.479.256.524.664 1.43 1.458 2.628.828 1.207 1.266 1.855 2.329 1.305 1.18-.594 2.041-.212 2.932.747.604.693 1.268 1.288 1.872 1.98.873 1.03.834 1.74.151 2.467-1.229 1.34-3.258 1.782-4.768.885-.834-.488-1.664-1.128-2.325-1.873-2.914-3.32-5.016-7.182-6.282-11.54a10.989 10.989 0 0 1-.34-2.139Z" stroke="#0AD9C6" stroke-width="2" stroke-miterlimit="10"/></g></symbol><symbol id="icon-video-play-desktop-mobile" viewBox="0 0 65 65"><g fill="none"><path fill-rule="evenodd" clip-rule="evenodd" d="M32.5 65C50.45 65 65 50.45 65 32.5S50.45 0 32.5 0 0 14.55 0 32.5 14.55 65 32.5 65Z" fill="#0AD9C6"/><path fill-rule="evenodd" clip-rule="evenodd" d="m28.6 23.4 13 9.1-13 9.1V23.4Z" fill="#070707"/></g></symbol><symbol id="icon-video-play-tablet" viewBox="0 0 91 91"><g fill="none"><path fill-rule="evenodd" clip-rule="evenodd" d="M45.179 90.358c24.951 0 45.179-20.228 45.179-45.18C90.358 20.229 70.13 0 45.178 0 20.229 0 0 20.227 0 45.179 0 70.13 20.227 90.358 45.179 90.358Z" fill="#0AD9C6"/><path fill-rule="evenodd" clip-rule="evenodd" d="m39.757 32.529 18.072 12.65-18.072 12.65v-25.3Z" fill="#070707"/></g></symbol><symbol id="logo-header" viewBox="0 0 68 21"><g fill="none"><path d="M13.364 0v20.046H10.07V5.822L8.973 7.207 6.825 9.975l-.095.095-.144-.095L4.44 7.207 3.34 5.775v14.27H0V0h3.34l3.39 4.295L10.07 0h3.294ZM8.304 10.07l-.095-.095.095.095Z" fill="#0AD9C6"/><path d="m8.448 9.975-.096.095h-.047l.143-.095ZM38.209 5.615l-9.127 6.701 2.113 2.878 9.127-6.701-2.113-2.878Z" fill="#0AD9C6"/><path d="M26.667 3c-3.864 0-7.043 3.13-7.043 7.043 0 3.864 3.13 7.043 7.043 7.043 3.864 0 7.043-3.13 7.043-7.043C33.71 6.18 30.531 3 26.667 3Zm0 10.271a3.225 3.225 0 0 1-3.228-3.228 3.225 3.225 0 0 1 3.228-3.228c1.76 0 3.228 1.467 3.228 3.228 0 1.76-1.467 3.228-3.228 3.228ZM43.64 3c-3.865 0-7.044 3.13-7.044 7.043 0 3.864 3.13 7.043 7.043 7.043 3.864 0 7.043-3.13 7.043-7.043C50.634 6.18 47.503 3 43.64 3Zm0 10.271a3.225 3.225 0 0 1-3.229-3.228 3.225 3.225 0 0 1 3.228-3.228c1.761 0 3.228 1.467 3.228 3.228 0 1.76-1.467 3.228-3.228 3.228ZM67.598.239v20.045h-3.341V9.88L61.44 7.207l-2.1-2.052v15.13H56V.238h3.341l3.913 3.77 1.003.955V.239h3.34Z" fill="#0AD9C6"/></g></symbol></svg>